<?xml version="1.0" encoding="UTF-8" standalone="no"?><!DOCTYPE svg PUBLIC "-//W3C//DTD SVG 1.1//EN" "http://www.w3.org/Graphics/SVG/1.1/DTD/svg11.dtd"><svg width="100%" height="100%" viewBox="0 0 339 82" version="1.1" xmlns="http://www.w3.org/2000/svg" xmlns:xlink="http://www.w3.org/1999/xlink" xml:space="preserve" style="fill-rule:evenodd;clip-rule:evenodd;stroke-linejoin:round;stroke-miterlimit:1.41421;"><g id="Laag-1"><path d="M79.771,67.937l1.306,0l0,4.879l0.045,0c0.27,-0.391 0.54,-0.751 0.795,-1.081l3.095,-3.798l1.621,0l-3.664,4.293l3.949,5.826l-1.546,-0.001l-3.335,-4.969l-0.96,1.112l0,3.858l-1.306,-0.001l0,-10.118Z" style="fill:#808285;fill-rule:nonzero;"/><path d="M92.474,73.717c0.015,-0.842 -0.345,-2.148 -1.833,-2.148c-1.337,0 -1.922,1.231 -2.027,2.148l3.86,0Zm-3.875,0.946c0.03,1.785 1.172,2.523 2.492,2.523c0.946,0 1.518,-0.166 2.013,-0.376l0.225,0.945c-0.465,0.21 -1.262,0.45 -2.417,0.45c-2.238,0 -3.574,-1.47 -3.574,-3.662c0,-2.193 1.291,-3.921 3.408,-3.921c2.373,0 3.003,2.088 3.003,3.425c0,0.27 -0.03,0.48 -0.045,0.616l-5.105,0Z" style="fill:#808285;fill-rule:nonzero;"/><path d="M99.996,73.717c0.016,-0.842 -0.344,-2.148 -1.833,-2.148c-1.335,0 -1.922,1.231 -2.027,2.148l3.86,0Zm-3.875,0.946c0.03,1.785 1.172,2.523 2.493,2.523c0.947,0 1.518,-0.166 2.013,-0.376l0.225,0.945c-0.465,0.21 -1.263,0.45 -2.418,0.45c-2.236,0 -3.573,-1.47 -3.573,-3.662c0,-2.193 1.29,-3.921 3.408,-3.921c2.373,0 3.003,2.088 3.003,3.425c0,0.27 -0.03,0.48 -0.045,0.616l-5.106,0Z" style="fill:#808285;fill-rule:nonzero;"/><path d="M104.216,75.098c0,0.195 0.03,0.375 0.058,0.54c0.24,0.917 1.037,1.548 1.983,1.548c1.395,0 2.207,-1.143 2.207,-2.808c0,-1.458 -0.765,-2.703 -2.162,-2.703c-0.9,0 -1.741,0.644 -1.996,1.637c-0.047,0.165 -0.09,0.36 -0.09,0.54l0,1.246Zm-1.307,-1.938c0,-0.93 -0.03,-1.681 -0.061,-2.371l1.186,0l0.062,1.246l0.028,0c0.542,-0.886 1.398,-1.411 2.583,-1.411c1.757,0 3.078,1.486 3.078,3.693c0,2.613 -1.591,3.904 -3.301,3.904c-0.962,0 -1.802,-0.42 -2.238,-1.141l-0.03,0l0,3.949l-1.307,0l0,-7.869Z" style="fill:#808285;fill-rule:nonzero;"/><path d="M111.452,70.789l1.322,0l0,7.268l-1.322,0l0,-7.268Zm1.47,-2.043c0.017,0.45 -0.313,0.81 -0.84,0.81c-0.465,0 -0.793,-0.36 -0.793,-0.81c0,-0.465 0.345,-0.825 0.825,-0.825c0.495,0 0.808,0.36 0.808,0.825" style="fill:#808285;fill-rule:nonzero;"/><path d="M114.965,72.756c0,-0.752 -0.015,-1.367 -0.059,-1.968l1.172,0l0.073,1.201l0.032,0c0.36,-0.69 1.2,-1.366 2.401,-1.366c1.007,0 2.568,0.601 2.568,3.094l0,4.338l-1.321,0l0,-4.189c0,-1.17 -0.437,-2.147 -1.682,-2.147c-0.87,0 -1.546,0.617 -1.773,1.352c-0.058,0.165 -0.09,0.391 -0.09,0.615l0,4.369l-1.321,0l0,-5.299Z" style="fill:#808285;fill-rule:nonzero;"/><path d="M128.195,73.657c0,-0.225 -0.015,-0.42 -0.076,-0.6c-0.24,-0.767 -0.885,-1.397 -1.845,-1.397c-1.263,0 -2.163,1.065 -2.163,2.747c0,1.426 0.721,2.613 2.148,2.613c0.808,0 1.543,-0.512 1.831,-1.352c0.074,-0.226 0.105,-0.48 0.105,-0.706l0,-1.305Zm1.365,-2.868c-0.028,0.525 -0.058,1.111 -0.058,1.996l0,4.218c0,1.668 -0.332,2.688 -1.037,3.32c-0.706,0.661 -1.726,0.87 -2.643,0.87c-0.87,0 -1.831,-0.209 -2.416,-0.6l0.33,-1.005c0.481,0.298 1.231,0.57 2.13,0.57c1.354,0 2.344,-0.707 2.344,-2.537l0,-0.811l-0.03,0c-0.406,0.675 -1.186,1.216 -2.314,1.216c-1.802,0 -3.09,-1.531 -3.09,-3.544c0,-2.462 1.605,-3.858 3.271,-3.858c1.26,0 1.952,0.66 2.268,1.26l0.03,0l0.059,-1.095l1.156,0Z" style="fill:#808285;fill-rule:nonzero;"/><rect x="134.875" y="67.395" width="1.322" height="10.66" style="fill:#808285;fill-rule:nonzero;"/><path d="M143.028,73.717c0.015,-0.842 -0.345,-2.148 -1.831,-2.148c-1.335,0 -1.922,1.231 -2.027,2.148l3.858,0Zm-3.873,0.946c0.029,1.785 1.172,2.523 2.493,2.523c0.947,0 1.515,-0.166 2.013,-0.376l0.222,0.945c-0.462,0.21 -1.26,0.45 -2.416,0.45c-2.235,0 -3.572,-1.47 -3.572,-3.662c0,-2.193 1.289,-3.921 3.408,-3.921c2.373,0 3.003,2.088 3.003,3.425c0,0.27 -0.03,0.48 -0.045,0.616l-5.106,0Z" style="fill:#808285;fill-rule:nonzero;"/><path d="M150.836,73.657c0,-0.225 -0.015,-0.42 -0.074,-0.6c-0.24,-0.767 -0.888,-1.397 -1.848,-1.397c-1.26,0 -2.163,1.065 -2.163,2.747c0,1.426 0.722,2.613 2.148,2.613c0.812,0 1.547,-0.512 1.832,-1.352c0.075,-0.226 0.105,-0.48 0.105,-0.706l0,-1.305Zm1.368,-2.868c-0.032,0.525 -0.062,1.111 -0.062,1.996l0,4.218c0,1.668 -0.331,2.688 -1.036,3.32c-0.704,0.661 -1.727,0.87 -2.643,0.87c-0.87,0 -1.832,-0.209 -2.417,-0.6l0.33,-1.005c0.482,0.298 1.232,0.57 2.133,0.57c1.352,0 2.342,-0.707 2.342,-2.537l0,-0.811l-0.03,0c-0.404,0.675 -1.187,1.216 -2.312,1.216c-1.801,0 -3.093,-1.531 -3.093,-3.544c0,-2.462 1.605,-3.858 3.272,-3.858c1.263,0 1.954,0.66 2.268,1.26l0.03,0l0.061,-1.095l1.157,0Z" style="fill:#808285;fill-rule:nonzero;"/><path d="M154.246,70.789l1.321,0l0,7.268l-1.321,0l0,-7.268Zm1.471,-2.043c0.015,0.45 -0.313,0.81 -0.841,0.81c-0.465,0 -0.794,-0.36 -0.794,-0.81c0,-0.465 0.342,-0.825 0.824,-0.825c0.498,0 0.811,0.36 0.811,0.825" style="fill:#808285;fill-rule:nonzero;"/><path d="M158.57,74.438c0,1.591 0.914,2.791 2.207,2.791c1.263,0 2.205,-1.186 2.205,-2.823c0,-1.23 -0.615,-2.791 -2.177,-2.791c-1.561,0 -2.235,1.441 -2.235,2.823m5.766,-0.077c0,2.688 -1.863,3.86 -3.618,3.86c-1.969,0 -3.484,-1.441 -3.484,-3.74c0,-2.431 1.591,-3.858 3.604,-3.858c2.085,0 3.498,1.518 3.498,3.738" style="fill:#808285;fill-rule:nonzero;"/><path d="M166.003,72.756c0,-0.752 -0.015,-1.367 -0.061,-1.968l1.171,0l0.077,1.201l0.028,0c0.36,-0.69 1.202,-1.366 2.403,-1.366c1.005,0 2.567,0.601 2.567,3.094l0,4.338l-1.322,0l0,-4.189c0,-1.17 -0.433,-2.147 -1.681,-2.147c-0.87,0 -1.545,0.617 -1.77,1.352c-0.062,0.165 -0.092,0.391 -0.092,0.615l0,4.369l-1.32,0l0,-5.299Z" style="fill:#808285;fill-rule:nonzero;"/><path d="M178.946,73.717c0.015,-0.842 -0.345,-2.148 -1.832,-2.148c-1.338,0 -1.921,1.231 -2.026,2.148l3.858,0Zm-3.873,0.946c0.028,1.785 1.168,2.523 2.49,2.523c0.946,0 1.518,-0.166 2.013,-0.376l0.225,0.945c-0.465,0.21 -1.262,0.45 -2.417,0.45c-2.238,0 -3.574,-1.47 -3.574,-3.662c0,-2.193 1.291,-3.921 3.408,-3.921c2.373,0 3.003,2.088 3.003,3.425c0,0.27 -0.03,0.48 -0.045,0.616l-5.103,0Z" style="fill:#808285;fill-rule:nonzero;"/><rect x="181.858" y="67.395" width="1.322" height="10.66" style="fill:#808285;fill-rule:nonzero;"/><rect x="185.399" y="67.395" width="1.322" height="10.66" style="fill:#808285;fill-rule:nonzero;"/><path d="M192.774,74.347c-1.442,-0.03 -3.08,0.225 -3.08,1.638c0,0.855 0.572,1.26 1.248,1.26c0.944,0 1.545,-0.602 1.755,-1.217c0.047,-0.135 0.077,-0.283 0.077,-0.42l0,-1.261Zm0.193,3.709l-0.102,-0.916l-0.048,0c-0.403,0.57 -1.186,1.081 -2.22,1.081c-1.474,0 -2.224,-1.035 -2.224,-2.088c0,-1.755 1.561,-2.716 4.371,-2.701l0,-0.152c0,-0.6 -0.167,-1.681 -1.652,-1.681c-0.676,0 -1.383,0.211 -1.893,0.541l-0.298,-0.871c0.6,-0.392 1.47,-0.645 2.385,-0.645c2.223,0 2.763,1.516 2.763,2.973l0,2.718c0,0.63 0.031,1.246 0.12,1.741l-1.202,0Z" style="fill:#808285;fill-rule:nonzero;"/><path d="M200.672,75.144c0,0.163 0.03,0.33 0.059,0.48c0.255,0.916 1.023,1.546 1.983,1.546c1.38,0 2.206,-1.126 2.206,-2.793c0,-1.456 -0.75,-2.703 -2.161,-2.703c-0.9,0 -1.742,0.617 -2.013,1.623c-0.03,0.149 -0.074,0.329 -0.074,0.54l0,1.307Zm-1.368,2.911c0.032,-0.495 0.062,-1.23 0.062,-1.876l0,-8.784l1.306,0l0,4.564l0.03,0c0.465,-0.81 1.307,-1.336 2.478,-1.336c1.802,0 3.077,1.501 3.062,3.709c0,2.597 -1.635,3.89 -3.258,3.89c-1.052,0 -1.893,-0.407 -2.432,-1.367l-0.046,0l-0.059,1.2l-1.143,0Z" style="fill:#808285;fill-rule:nonzero;"/><path d="M211.738,74.347c-1.442,-0.03 -3.08,0.225 -3.08,1.638c0,0.855 0.572,1.26 1.248,1.26c0.944,0 1.545,-0.602 1.755,-1.217c0.047,-0.135 0.077,-0.283 0.077,-0.42l0,-1.261Zm0.193,3.709l-0.102,-0.916l-0.048,0c-0.403,0.57 -1.186,1.081 -2.22,1.081c-1.474,0 -2.224,-1.035 -2.224,-2.088c0,-1.755 1.561,-2.716 4.371,-2.701l0,-0.152c0,-0.6 -0.167,-1.681 -1.652,-1.681c-0.676,0 -1.383,0.211 -1.893,0.541l-0.298,-0.871c0.6,-0.392 1.47,-0.645 2.385,-0.645c2.223,0 2.763,1.516 2.763,2.973l0,2.718c0,0.63 0.031,1.246 0.12,1.741l-1.202,0Z" style="fill:#808285;fill-rule:nonzero;"/><path d="M220.328,77.786c-0.345,0.179 -1.113,0.419 -2.09,0.419c-2.192,0 -3.618,-1.485 -3.618,-3.707c0,-2.238 1.533,-3.861 3.906,-3.861c0.779,0 1.47,0.197 1.832,0.377l-0.303,1.021c-0.314,-0.18 -0.809,-0.345 -1.529,-0.345c-1.668,0 -2.569,1.23 -2.569,2.748c0,1.682 1.081,2.717 2.522,2.717c0.75,0 1.248,-0.195 1.623,-0.36l0.226,0.991Z" style="fill:#808285;fill-rule:nonzero;"/><path d="M223.659,68.701l0,2.088l1.893,0l0,1.007l-1.893,0l0,3.918c0,0.9 0.255,1.41 0.99,1.41c0.346,0 0.601,-0.044 0.768,-0.089l0.058,0.992c-0.255,0.103 -0.66,0.178 -1.168,0.178c-0.618,0 -1.115,-0.195 -1.428,-0.555c-0.375,-0.39 -0.512,-1.036 -0.512,-1.891l0,-3.963l-1.125,0l0,-1.007l1.125,0l0,-1.743l1.292,-0.345Z" style="fill:#808285;fill-rule:nonzero;"/><path d="M231.557,73.717c0.015,-0.842 -0.345,-2.148 -1.832,-2.148c-1.338,0 -1.921,1.231 -2.026,2.148l3.858,0Zm-3.873,0.946c0.028,1.785 1.168,2.523 2.49,2.523c0.946,0 1.518,-0.166 2.013,-0.376l0.225,0.945c-0.465,0.21 -1.262,0.45 -2.417,0.45c-2.238,0 -3.574,-1.47 -3.574,-3.662c0,-2.193 1.291,-3.921 3.408,-3.921c2.373,0 3.003,2.088 3.003,3.425c0,0.27 -0.03,0.48 -0.045,0.616l-5.103,0Z" style="fill:#808285;fill-rule:nonzero;"/><path d="M234.469,73.056c0,-0.856 -0.015,-1.593 -0.058,-2.268l1.156,0l0.045,1.427l0.059,0c0.33,-0.977 1.128,-1.592 2.013,-1.592c0.148,0 0.255,0.015 0.375,0.045l0,1.247c-0.135,-0.03 -0.27,-0.045 -0.449,-0.045c-0.931,0 -1.594,0.706 -1.773,1.696c-0.028,0.18 -0.061,0.392 -0.061,0.617l0,3.873l-1.307,0l0,-5Z" style="fill:#808285;fill-rule:nonzero;"/><path d="M239.441,70.789l1.322,0l0,7.268l-1.322,0l0,-7.268Zm1.47,-2.043c0.015,0.45 -0.313,0.81 -0.84,0.81c-0.466,0 -0.795,-0.36 -0.795,-0.81c0,-0.465 0.344,-0.825 0.824,-0.825c0.498,0 0.811,0.36 0.811,0.825" style="fill:#808285;fill-rule:nonzero;"/><path d="M246.783,74.347c-1.442,-0.03 -3.08,0.225 -3.08,1.638c0,0.855 0.572,1.26 1.248,1.26c0.944,0 1.545,-0.602 1.755,-1.217c0.047,-0.135 0.077,-0.283 0.077,-0.42l0,-1.261Zm0.193,3.709l-0.102,-0.916l-0.048,0c-0.403,0.57 -1.186,1.081 -2.22,1.081c-1.474,0 -2.224,-1.035 -2.224,-2.088c0,-1.755 1.561,-2.716 4.371,-2.701l0,-0.152c0,-0.6 -0.167,-1.681 -1.652,-1.681c-0.676,0 -1.383,0.211 -1.893,0.541l-0.298,-0.871c0.6,-0.392 1.47,-0.645 2.385,-0.645c2.223,0 2.763,1.516 2.763,2.973l0,2.718c0,0.63 0.031,1.246 0.12,1.741l-1.202,0Z" style="fill:#808285;fill-rule:nonzero;"/><path d="M259.456,76.074c0,0.751 0.015,1.41 0.059,1.981l-1.172,0l-0.073,-1.186l-0.032,0c-0.343,0.586 -1.111,1.353 -2.403,1.353c-1.14,0 -2.505,-0.632 -2.505,-3.183l0,-4.25l1.322,0l0,4.023c0,1.382 0.418,2.312 1.62,2.312c0.885,0 1.503,-0.615 1.743,-1.202c0.073,-0.193 0.12,-0.435 0.12,-0.675l0,-4.458l1.321,0l0,5.285Z" style="fill:#808285;fill-rule:nonzero;"/><path d="M261.648,72.756c0,-0.752 -0.015,-1.367 -0.062,-1.968l1.172,0l0.076,1.201l0.03,0c0.36,-0.69 1.2,-1.366 2.402,-1.366c1.005,0 2.566,0.601 2.566,3.094l0,4.338l-1.321,0l0,-4.189c0,-1.17 -0.434,-2.147 -1.682,-2.147c-0.87,0 -1.543,0.617 -1.77,1.352c-0.061,0.165 -0.09,0.391 -0.09,0.615l0,4.369l-1.321,0l0,-5.299Z" style="fill:#808285;fill-rule:nonzero;"/><path d="M274.937,73.746c0,-0.163 -0.015,-0.39 -0.062,-0.555c-0.193,-0.841 -0.913,-1.531 -1.906,-1.531c-1.367,0 -2.178,1.201 -2.178,2.806c0,1.473 0.721,2.688 2.148,2.688c0.885,0 1.696,-0.585 1.936,-1.575c0.047,-0.18 0.062,-0.361 0.062,-0.571l0,-1.262Zm1.321,-6.351l0,8.784c0,0.647 0.015,1.382 0.059,1.877l-1.187,0l-0.058,-1.262l-0.03,0c-0.407,0.81 -1.292,1.427 -2.478,1.427c-1.758,0 -3.108,-1.487 -3.108,-3.693c-0.015,-2.418 1.485,-3.905 3.258,-3.905c1.11,0 1.863,0.527 2.191,1.112l0.032,0l0,-4.34l1.321,0Z" style="fill:#808285;fill-rule:nonzero;"/><path d="M283.058,73.717c0.015,-0.842 -0.345,-2.148 -1.832,-2.148c-1.335,0 -1.921,1.231 -2.026,2.148l3.858,0Zm-3.873,0.946c0.028,1.785 1.171,2.523 2.493,2.523c0.946,0 1.515,-0.166 2.013,-0.376l0.222,0.945c-0.462,0.21 -1.26,0.45 -2.417,0.45c-2.235,0 -3.571,-1.47 -3.571,-3.662c0,-2.193 1.288,-3.921 3.408,-3.921c2.373,0 3.003,2.088 3.003,3.425c0,0.27 -0.03,0.48 -0.045,0.616l-5.106,0Z" style="fill:#808285;fill-rule:nonzero;"/><path d="M285.97,73.056c0,-0.856 -0.015,-1.593 -0.058,-2.268l1.156,0l0.045,1.427l0.059,0c0.33,-0.977 1.128,-1.592 2.013,-1.592c0.148,0 0.255,0.015 0.375,0.045l0,1.247c-0.135,-0.03 -0.27,-0.045 -0.449,-0.045c-0.931,0 -1.594,0.706 -1.773,1.696c-0.028,0.18 -0.061,0.392 -0.061,0.617l0,3.873l-1.307,0l0,-5Z" style="fill:#808285;fill-rule:nonzero;"/><path d="M299.244,77.786c-0.345,0.179 -1.11,0.419 -2.086,0.419c-2.195,0 -3.618,-1.485 -3.618,-3.707c0,-2.238 1.53,-3.861 3.903,-3.861c0.781,0 1.47,0.197 1.831,0.377l-0.3,1.021c-0.316,-0.18 -0.811,-0.345 -1.531,-0.345c-1.668,0 -2.567,1.23 -2.567,2.748c0,1.682 1.082,2.717 2.523,2.717c0.75,0 1.245,-0.195 1.62,-0.36l0.225,0.991Z" style="fill:#808285;fill-rule:nonzero;"/><path d="M301.512,74.438c0,1.591 0.916,2.791 2.21,2.791c1.26,0 2.205,-1.186 2.205,-2.823c0,-1.23 -0.615,-2.791 -2.177,-2.791c-1.561,0 -2.238,1.441 -2.238,2.823m5.766,-0.077c0,2.688 -1.86,3.86 -3.618,3.86c-1.966,0 -3.484,-1.441 -3.484,-3.74c0,-2.431 1.591,-3.858 3.604,-3.858c2.085,0 3.498,1.518 3.498,3.738" style="fill:#808285;fill-rule:nonzero;"/><path d="M308.945,72.756c0,-0.752 -0.015,-1.367 -0.062,-1.968l1.172,0l0.076,1.201l0.03,0c0.36,-0.69 1.2,-1.366 2.402,-1.366c1.005,0 2.566,0.601 2.566,3.094l0,4.338l-1.321,0l0,-4.189c0,-1.17 -0.434,-2.147 -1.682,-2.147c-0.87,0 -1.543,0.617 -1.77,1.352c-0.061,0.165 -0.09,0.391 -0.09,0.615l0,4.369l-1.321,0l0,-5.299Z" style="fill:#808285;fill-rule:nonzero;"/><path d="M318.809,68.701l0,2.088l1.893,0l0,1.007l-1.893,0l0,3.918c0,0.9 0.255,1.41 0.99,1.41c0.346,0 0.601,-0.044 0.768,-0.089l0.058,0.992c-0.255,0.103 -0.66,0.178 -1.168,0.178c-0.618,0 -1.115,-0.195 -1.428,-0.555c-0.375,-0.39 -0.512,-1.036 -0.512,-1.891l0,-3.963l-1.125,0l0,-1.007l1.125,0l0,-1.743l1.292,-0.345Z" style="fill:#808285;fill-rule:nonzero;"/><path d="M322.187,73.056c0,-0.856 -0.015,-1.593 -0.059,-2.268l1.157,0l0.045,1.427l0.058,0c0.33,-0.977 1.128,-1.592 2.013,-1.592c0.149,0 0.255,0.015 0.375,0.045l0,1.247c-0.135,-0.03 -0.27,-0.045 -0.448,-0.045c-0.932,0 -1.595,0.706 -1.773,1.696c-0.029,0.18 -0.062,0.392 -0.062,0.617l0,3.873l-1.306,0l0,-5Z" style="fill:#808285;fill-rule:nonzero;"/><path d="M327.759,74.438c0,1.591 0.917,2.791 2.21,2.791c1.26,0 2.205,-1.186 2.205,-2.823c0,-1.23 -0.615,-2.791 -2.177,-2.791c-1.561,0 -2.238,1.441 -2.238,2.823m5.766,-0.077c0,2.688 -1.86,3.86 -3.618,3.86c-1.966,0 -3.484,-1.441 -3.484,-3.74c0,-2.431 1.591,-3.858 3.604,-3.858c2.085,0 3.498,1.518 3.498,3.738" style="fill:#808285;fill-rule:nonzero;"/><rect x="335.192" y="67.395" width="1.322" height="10.66" style="fill:#808285;fill-rule:nonzero;"/><path d="M108.293,50.587l0,4.459l-28.716,0l0,-41.617l11.89,0l0,37.158l16.826,0Z" style="fill:#ed1c24;fill-rule:nonzero;"/><path d="M124.583,29.481c-1.744,0 -2.616,0.872 -2.616,2.616l0,6.005l9.81,0l0,3.567l-9.81,0l0,6.658c0,0.992 0.287,1.764 0.861,2.319c0.575,0.555 1.416,0.833 2.528,0.833l9.631,0l0,3.567l-15.994,0c-1.626,0 -3.021,-0.506 -4.191,-1.517c-1.17,-1.011 -1.752,-2.526 -1.752,-4.548l0,-17.478c0,-1.624 0.523,-2.964 1.573,-4.014c1.052,-1.048 2.528,-1.575 4.43,-1.575l15.22,0l0,3.567l-9.69,0Z" style="fill:#ed1c24;fill-rule:nonzero;"/><path d="M148.394,54.719c-2.002,-0.774 -3.717,-1.843 -5.143,-3.211c-1.427,-1.367 -2.526,-2.972 -3.3,-4.815c-0.773,-1.844 -1.158,-3.855 -1.158,-6.035c0,-2.059 0.376,-4.023 1.129,-5.886c0.753,-1.861 1.853,-3.477 3.3,-4.845c1.446,-1.366 3.24,-2.457 5.381,-3.27c2.139,-0.811 4.576,-1.219 7.312,-1.219c1.506,0 2.883,0.129 4.133,0.387c1.248,0.258 2.367,0.606 3.358,1.041c0.99,0.436 1.862,0.931 2.616,1.486c0.75,0.555 1.428,1.13 2.022,1.724l-2.856,2.319c-0.436,-0.437 -0.91,-0.852 -1.426,-1.25c-0.516,-0.394 -1.11,-0.751 -1.782,-1.069c-0.677,-0.318 -1.479,-0.575 -2.409,-0.773c-0.932,-0.198 -2.031,-0.298 -3.3,-0.298c-1.467,0 -2.765,0.327 -3.894,0.982c-1.13,0.653 -2.081,1.526 -2.853,2.616c-0.774,1.089 -1.358,2.337 -1.754,3.746c-0.397,1.405 -0.594,2.842 -0.594,4.309c0,1.467 0.177,2.894 0.534,4.28c0.356,1.389 0.911,2.626 1.664,3.717c0.753,1.09 1.704,1.971 2.856,2.646c1.147,0.673 2.514,1.011 4.101,1.011c1.545,0 2.803,-0.239 3.775,-0.714c0.971,-0.476 1.734,-1.031 2.289,-1.664l0,-8.682l8.799,0l0,24.971l-8.917,0l0,-12.306c-0.596,0.516 -1.427,0.97 -2.498,1.366c-1.071,0.396 -2.637,0.594 -4.696,0.594c-2.459,0 -4.688,-0.385 -6.689,-1.158" style="fill:#ed1c24;fill-rule:nonzero;"/><path d="M185.519,55.047l-8.917,0l0,-29.132l8.917,0l0,29.132Zm-1.306,-37.932c-0.873,0.873 -1.922,1.309 -3.152,1.309c-1.228,0 -2.28,-0.436 -3.15,-1.309c-0.873,-0.872 -1.309,-1.922 -1.309,-3.15c0,-1.229 0.436,-2.28 1.309,-3.152c0.87,-0.871 1.922,-1.308 3.15,-1.308c1.23,0 2.279,0.437 3.152,1.308c0.87,0.872 1.306,1.923 1.306,3.152c0,1.228 -0.436,2.278 -1.306,3.15" style="fill:#ed1c24;fill-rule:nonzero;"/><path d="M200.652,44.849c0.295,1.407 0.744,2.666 1.336,3.777c0.594,1.109 1.338,2.001 2.229,2.675c0.894,0.673 1.934,1.011 3.123,1.011c1.19,0 2.229,-0.338 3.12,-1.011c0.894,-0.674 1.635,-1.566 2.229,-2.675c0.596,-1.111 1.041,-2.379 1.34,-3.807c0.295,-1.426 0.445,-2.872 0.445,-4.339c0,-1.506 -0.15,-2.973 -0.445,-4.4c-0.299,-1.426 -0.744,-2.695 -1.34,-3.805c-0.594,-1.109 -1.335,-2.001 -2.229,-2.675c-0.891,-0.673 -1.93,-1.011 -3.12,-1.011c-1.189,0 -2.229,0.338 -3.123,1.011c-0.891,0.674 -1.635,1.577 -2.229,2.706c-0.592,1.13 -1.041,2.406 -1.336,3.834c-0.299,1.428 -0.446,2.874 -0.446,4.34c0,1.507 0.147,2.964 0.446,4.369m22.294,1.308c-0.694,1.845 -1.725,3.489 -3.09,4.935c-1.368,1.448 -3.103,2.606 -5.203,3.477c-2.1,0.873 -4.538,1.31 -7.313,1.31c-2.815,0 -5.262,-0.446 -7.342,-1.338c-2.082,-0.893 -3.806,-2.061 -5.174,-3.509c-1.368,-1.446 -2.398,-3.09 -3.09,-4.933c-0.694,-1.844 -1.041,-3.717 -1.041,-5.619c0,-1.941 0.347,-3.845 1.041,-5.708c0.692,-1.861 1.734,-3.517 3.12,-4.963c1.389,-1.446 3.123,-2.607 5.204,-3.479c2.079,-0.871 4.507,-1.308 7.282,-1.308c2.775,0 5.204,0.446 7.283,1.338c2.08,0.893 3.814,2.061 5.2,3.509c1.389,1.447 2.429,3.09 3.123,4.933c0.692,1.842 1.041,3.737 1.041,5.678c0,1.942 -0.349,3.835 -1.041,5.677" style="fill:#ed1c24;fill-rule:nonzero;"/><path d="M239.444,29.481c-1.031,0 -1.881,0.168 -2.555,0.506c-0.676,0.337 -1.011,0.979 -1.011,1.932c0,0.555 0.108,1 0.326,1.338c0.216,0.336 0.603,0.643 1.159,0.921c0.554,0.277 1.299,0.544 2.231,0.802c0.931,0.258 2.109,0.566 3.535,0.921c2.658,0.635 4.718,1.736 6.185,3.3c1.465,1.566 2.2,3.618 2.2,6.153c0,3.093 -0.981,5.48 -2.944,7.164c-1.961,1.685 -4.946,2.528 -8.948,2.528l-11.712,0l0,-3.567l10.107,0c1.269,0 2.27,-0.239 3.003,-0.714c0.732,-0.476 1.098,-1.427 1.098,-2.853c0,-1.388 -0.504,-2.448 -1.515,-3.182c-1.009,-0.732 -2.506,-1.257 -4.488,-1.575c-2.973,-0.516 -5.253,-1.495 -6.837,-2.943c-1.585,-1.447 -2.379,-3.438 -2.379,-5.974c0,-2.498 0.803,-4.509 2.408,-6.036c1.606,-1.524 3.955,-2.288 7.045,-2.288l12.129,0l0,3.567l-9.037,0Z" style="fill:#29a6de;fill-rule:nonzero;"/><path d="M264.085,44.849c0.299,1.407 0.744,2.666 1.34,3.777c0.594,1.109 1.338,2.001 2.229,2.675c0.891,0.673 1.93,1.011 3.12,1.011c1.189,0 2.229,-0.338 3.123,-1.011c0.891,-0.674 1.635,-1.566 2.229,-2.675c0.595,-1.111 1.041,-2.379 1.336,-3.807c0.299,-1.426 0.449,-2.872 0.449,-4.339c0,-1.506 -0.15,-2.973 -0.449,-4.4c-0.295,-1.426 -0.741,-2.695 -1.336,-3.805c-0.594,-1.109 -1.338,-2.001 -2.229,-2.675c-0.894,-0.673 -1.934,-1.011 -3.123,-1.011c-1.19,0 -2.229,0.338 -3.12,1.011c-0.891,0.674 -1.635,1.577 -2.229,2.706c-0.596,1.13 -1.041,2.406 -1.34,3.834c-0.295,1.428 -0.445,2.874 -0.445,4.34c0,1.507 0.15,2.964 0.445,4.369m22.295,1.308c-0.695,1.845 -1.722,3.489 -3.09,4.935c-1.368,1.448 -3.104,2.606 -5.204,3.477c-2.1,0.873 -4.537,1.31 -7.312,1.31c-2.813,0 -5.262,-0.446 -7.343,-1.338c-2.079,-0.893 -3.805,-2.061 -5.17,-3.509c-1.368,-1.446 -2.399,-3.09 -3.093,-4.933c-0.692,-1.844 -1.041,-3.717 -1.041,-5.619c0,-1.941 0.349,-3.845 1.041,-5.708c0.694,-1.861 1.734,-3.517 3.123,-4.963c1.386,-1.446 3.12,-2.607 5.2,-3.479c2.082,-0.871 4.508,-1.308 7.283,-1.308c2.775,0 5.203,0.446 7.282,1.338c2.084,0.893 3.815,2.061 5.204,3.509c1.386,1.447 2.425,3.09 3.12,4.933c0.694,1.842 1.041,3.737 1.041,5.678c0,1.942 -0.347,3.835 -1.041,5.677" style="fill:#29a6de;fill-rule:nonzero;"/><path d="M303.712,14.023c-1.663,0 -2.496,0.912 -2.496,2.734l0,9.216l6.419,0l0,3.567l-6.419,0l0,25.506l-8.917,0l0,-35.673c0,-2.853 0.831,-5.053 2.496,-6.598c1.663,-1.545 3.864,-2.319 6.597,-2.319l5.769,0l0,3.567l-3.449,0Z" style="fill:#29a6de;fill-rule:nonzero;"/><path d="M338.789,29.481l-9.513,0l0,25.565l-8.917,0l0,-25.565l-9.513,0l0,-3.567l27.943,0l0,3.567Z" style="fill:#29a6de;fill-rule:nonzero;"/><path d="M33.588,31.614c0.834,1.769 1.355,3.272 1.355,4.263c0,6.051 -3.921,11.18 -9.359,13.007c0.984,2.098 2.42,4.596 3.968,7.101c7.527,-3.231 12.802,-10.707 12.802,-19.418c0,-1.3 -0.583,-3.175 -1.551,-5.389c-0.912,-0.188 -1.858,-0.293 -2.827,-0.293c-1.538,0 -3.009,0.261 -4.388,0.729" style="fill:#ed1c24;fill-rule:nonzero;"/><path d="M7.482,35.877l-0.068,0l0.072,-0.129c0.047,-4.977 13.649,-23.64 13.649,-23.64c0,0 4.589,6.199 8.476,12.43c2.117,-0.918 4.415,-1.483 6.824,-1.659c-6.284,-10.675 -15.324,-22.879 -15.324,-22.879c0,0 -20.925,28.714 -20.996,36.369l-0.115,0.198l0.103,0c0,11.667 9.461,21.125 21.128,21.125c0.507,0 1.009,-0.041 1.509,-0.077c-1.755,-3.002 -3.287,-5.868 -4.347,-8.3c-6.23,-1.298 -10.911,-6.82 -10.911,-13.438" style="fill:#ed1c24;fill-rule:nonzero;"/><path d="M37.902,68.385c0,0 -4.515,-6.198 -8.351,-12.401c-1.548,-2.505 -2.983,-5.002 -3.967,-7.101c-0.813,-1.729 -1.325,-3.186 -1.332,-4.14l-0.074,-0.127l0.068,0c0,-6.045 3.915,-11.171 9.343,-13.002c1.377,-0.467 2.85,-0.729 4.386,-0.729c0.971,0 1.916,0.105 2.828,0.292c6.226,1.307 10.906,6.825 10.906,13.439c0,5.127 -13.807,23.769 -13.807,23.769m0.093,-45.585c-0.527,0 -1.04,0.042 -1.56,0.079c-2.408,0.176 -4.707,0.741 -6.822,1.661c-7.496,3.244 -12.743,10.698 -12.743,19.386l-0.105,0l0.116,0.195c0.012,1.245 0.58,3.051 1.513,5.194c1.059,2.432 2.592,5.298 4.347,8.3c6.212,10.63 15.135,22.876 15.135,22.876c0,0 21.243,-28.675 21.243,-36.565c0,-11.667 -9.457,-21.126 -21.124,-21.126" style="fill:#29a6de;fill-rule:nonzero;"/><path d="M50.404,16.487c-2.001,0 -3.622,-1.623 -3.622,-3.623c0,-2.001 1.621,-3.621 3.622,-3.621c2,0 3.623,1.62 3.623,3.621c0,2 -1.623,3.623 -3.623,3.623m0,-11.672c-4.446,0 -8.049,3.605 -8.049,8.049c0,4.445 3.603,8.048 8.049,8.048c4.445,0 8.048,-3.603 8.048,-8.048c0,-4.444 -3.603,-8.049 -8.048,-8.049" style="fill:#6c6e70;fill-rule:nonzero;"/></g></svg>